<svg width="19" height="17" viewBox="0 0 19 17" fill="none" xmlns="http://www.w3.org/2000/svg">
<path d="M6.36035 13.3555C7.25233 13.3556 7.97562 14.0787 7.97559 14.9707C7.97547 15.8626 7.25226 16.5858 6.36035 16.5859C5.46838 16.5859 4.74523 15.8627 4.74512 14.9707C4.74512 14.0787 5.46827 13.3555 6.36035 13.3555ZM6.36035 14.1514C5.90772 14.1514 5.54102 14.5181 5.54102 14.9707C5.54111 15.4233 5.90777 15.79 6.36035 15.79C6.81283 15.7899 7.17962 15.4232 7.17969 14.9707C7.17969 14.5181 6.81289 14.1515 6.36035 14.1514Z" fill="#2B3043" stroke="#2B3043" stroke-width="0.1"/>
<path d="M14.1865 13.3555C15.0785 13.3556 15.8018 14.0787 15.8018 14.9707C15.8016 15.8626 15.0784 16.5858 14.1865 16.5859C13.2945 16.5859 12.5714 15.8627 12.5713 14.9707C12.5713 14.0787 13.2944 13.3555 14.1865 13.3555ZM14.1865 14.1514C13.7339 14.1514 13.3672 14.5181 13.3672 14.9707C13.3673 15.4233 13.7339 15.79 14.1865 15.79C14.639 15.7899 15.0058 15.4232 15.0059 14.9707C15.0059 14.5181 14.6391 14.1515 14.1865 14.1514Z" fill="#2B3043" stroke="#2B3043" stroke-width="0.1"/>
<path d="M1.91699 0.050293C2.69562 0.058017 3.39332 0.487916 3.70215 1.14209L3.75879 1.27588V1.27686L4.12207 2.30127L17.6807 2.4751H17.6846L17.7871 2.49365C17.8536 2.51136 17.9161 2.54004 17.9717 2.57861L18.0498 2.64404L18.0508 2.64502C18.1457 2.74738 18.173 2.88889 18.124 3.01709L18.126 3.01807L17.123 6.88623C16.8936 7.77974 16.0808 8.44051 15.0967 8.54053H15.0957L6.33301 9.38428L6.17969 9.70166C6.06445 9.99231 6.10114 10.3165 6.2793 10.5796C6.45906 10.8453 6.77337 11.0111 7.11621 11.019H15.2373C15.4916 11.019 15.7051 11.2106 15.7051 11.4546C15.7049 11.6984 15.4916 11.8892 15.2373 11.8892H7.11426C6.46582 11.8712 5.86599 11.5625 5.50879 11.0601C5.14818 10.5484 5.07576 9.90705 5.31543 9.3374L5.31641 9.33545L5.51562 8.91162L2.87109 1.56104L2.80762 1.42627C2.63469 1.12595 2.29611 0.927193 1.91504 0.919434H0.517578C0.263242 0.919434 0.0498047 0.728814 0.0498047 0.484863C0.0498773 0.240972 0.263286 0.050293 0.517578 0.050293H1.91699ZM6.33398 8.49463L14.9824 7.67139H14.9834C15.5855 7.62735 16.082 7.22645 16.2119 6.68896V6.68799L17.0938 3.34326L4.42969 3.17139L6.33398 8.49463Z" fill="#2B3043" stroke="#2B3043" stroke-width="0.1"/>
</svg>
