<svg width="17" height="17" viewBox="0 0 17 17" fill="none" xmlns="http://www.w3.org/2000/svg">
<g clip-path="url(#clip0_9_7817)">
<path d="M15.6269 2.41488C14.7367 1.52469 13.5582 1.03816 12.3004 1.03816C11.0426 1.03816 9.86051 1.5283 8.97032 2.41848L8.50541 2.88339L8.03329 2.41127C7.14311 1.52109 5.9574 1.02734 4.69961 1.02734C3.44542 1.02734 2.26332 1.51748 1.37674 2.40406C0.486557 3.29425 -0.00358424 4.47635 1.97344e-05 5.73414C1.97344e-05 6.99193 0.493765 8.17043 1.38395 9.06061L8.15222 15.8289C8.24592 15.9226 8.37206 15.973 8.4946 15.973C8.61713 15.973 8.74327 15.9262 8.83698 15.8325L15.6197 9.07503C16.5098 8.18484 17 7.00274 17 5.74495C17.0036 4.48716 16.5171 3.30506 15.6269 2.41488ZM14.9349 8.38667L8.4946 14.8017L2.0687 8.37585C1.36232 7.66948 0.973094 6.73244 0.973094 5.73414C0.973094 4.73584 1.35872 3.7988 2.0651 3.09603C2.76788 2.39325 3.70491 2.00402 4.69961 2.00402C5.69791 2.00402 6.63855 2.39325 7.34493 3.09963L8.15943 3.91413C8.35044 4.10514 8.65678 4.10514 8.84779 3.91413L9.65508 3.10684C10.3615 2.40046 11.3021 2.01123 12.2968 2.01123C13.2915 2.01123 14.2285 2.40046 14.9349 3.10324C15.6413 3.80961 16.0269 4.74665 16.0269 5.74495C16.0305 6.74325 15.6413 7.68029 14.9349 8.38667Z" fill="#2B3043"/>
</g>
<defs>
<clipPath id="clip0_9_7817">
<rect width="17" height="17" fill="white"/>
</clipPath>
</defs>
</svg>
